<svg width="1024" height="1024" viewBox="0 0 1024 1024" fill="none" xmlns="http://www.w3.org/2000/svg">
<g clip-path="url(#clip0_1_418)">
<path d="M538.133 207.245C549.688 216.198 558.369 227.675 561.133 242.245C562.713 257.395 558.667 271.264 549.133 283.245C541.705 291.46 532.511 295.786 522.133 299.245C521.803 311.125 521.473 323.005 521.133 335.245C526.246 335.235 526.246 335.235 531.463 335.225C562.713 335.165 593.963 335.12 625.213 335.092C629.308 335.088 633.402 335.084 637.496 335.08C638.719 335.079 638.719 335.079 639.966 335.078C653.171 335.065 666.375 335.041 679.58 335.013C693.125 334.985 706.671 334.969 720.216 334.963C728.577 334.959 736.938 334.946 745.298 334.921C751.029 334.905 756.759 334.901 762.49 334.904C765.798 334.906 769.105 334.902 772.413 334.887C775.998 334.872 779.583 334.876 783.167 334.884C784.215 334.875 785.263 334.867 786.342 334.858C795.251 334.913 795.251 334.913 799.133 338.245C801.636 341.999 801.586 343.792 801.133 348.245C799.013 352.258 797.357 354.593 793.133 356.245C790.83 356.485 790.83 356.485 788.272 356.472C787.312 356.472 786.351 356.472 785.361 356.472C783.817 356.456 783.817 356.456 782.242 356.44C781.182 356.437 780.123 356.435 779.031 356.432C775.648 356.42 772.266 356.395 768.883 356.37C766.589 356.36 764.294 356.351 762 356.343C756.378 356.321 750.755 356.287 745.133 356.245C745.556 357.368 745.979 358.49 746.415 359.647C748.015 363.898 749.614 368.149 751.212 372.401C751.898 374.225 752.584 376.049 753.271 377.873C757.177 388.239 761.018 398.615 764.609 409.095C766.181 413.519 768.028 417.822 769.848 422.148C771.833 426.932 773.667 431.771 775.496 436.616C775.892 437.659 776.287 438.702 776.695 439.777C777.947 443.078 779.196 446.38 780.445 449.682C781.27 451.859 782.095 454.035 782.92 456.212C784.143 459.438 785.366 462.665 786.588 465.892C791.247 478.193 795.91 490.492 800.645 502.764C803.759 510.848 806.807 518.957 809.863 527.063C816.239 543.968 822.639 560.862 829.07 577.745C829.415 578.65 829.759 579.554 830.114 580.486C831.087 583.041 832.061 585.596 833.035 588.151C833.464 589.276 833.464 589.276 833.901 590.424C835.004 593.313 836.111 596.194 837.308 599.046C842.75 613.549 834.954 632.905 829.133 646.245C817.188 671.767 796.377 691.077 770.023 701.043C765.451 702.647 760.833 704.066 756.133 705.245C755.422 705.43 754.71 705.616 753.978 705.807C746.26 707.603 738.514 707.643 730.633 707.62C729.924 707.619 729.216 707.619 728.485 707.618C717.308 707.579 706.782 706.858 696.133 703.245C695.481 703.025 694.83 702.806 694.158 702.579C665.438 692.564 643.044 673.367 629.761 646.003C625.307 636.53 621.574 626.663 620.133 616.245C620.01 615.425 619.887 614.606 619.76 613.762C618.809 601.655 624.25 590.789 628.57 579.745C629.441 577.472 630.31 575.198 631.177 572.923C632.952 568.274 634.738 563.629 636.533 558.988C638.927 552.792 641.282 546.583 643.617 540.366C644.144 538.963 644.144 538.963 644.682 537.531C645.381 535.671 646.08 533.81 646.779 531.95C658.412 501.029 670.233 470.178 682.063 439.331C686.502 427.754 690.925 416.171 695.32 404.577C695.965 402.876 695.965 402.876 696.623 401.141C698.702 395.658 700.779 390.174 702.853 384.688C703.609 382.693 704.365 380.697 705.121 378.702C705.454 377.82 705.786 376.937 706.129 376.028C708.658 369.363 711.387 362.836 714.133 356.245C650.443 356.245 586.753 356.245 521.133 356.245C521.133 408.385 521.133 460.525 521.133 514.245C525.423 514.245 529.713 514.245 534.133 514.245C534.052 512.233 533.97 510.22 533.887 508.147C533.838 506.178 533.79 504.209 533.748 502.239C533.713 500.88 533.666 499.521 533.605 498.163C533.113 486.914 533.113 486.914 535.584 482.87C537.337 481.104 539.095 479.667 541.133 478.245C541.843 477.607 542.553 476.969 543.285 476.311C543.874 475.815 544.463 475.319 545.07 474.807C545.691 474.25 546.312 473.692 546.951 473.118C549.133 471.245 549.133 471.245 551.244 469.85C554.406 467.451 556.686 465.21 557.592 461.225C558.322 455.252 558.2 449.251 558.133 443.245C558.141 441.402 558.153 439.56 558.168 437.718C558.198 433.226 558.179 428.737 558.133 424.245C557.184 423.94 556.234 423.636 555.256 423.322C549.426 421.312 545.569 417.579 542.758 412.12C539.429 404.913 539.013 397.728 541.57 390.182C544.346 383.828 549.333 379.158 555.5 376.054C562.651 373.857 570.839 374.173 577.633 377.307C584.389 381.246 588.907 386.701 591.133 394.245C591.988 401.885 591.445 407.814 587.133 414.245C586.576 415.132 586.019 416.019 585.445 416.932C582.163 420.215 578.349 422.332 574.133 424.245C573.473 424.245 572.813 424.245 572.133 424.245C572.253 425.457 572.374 426.67 572.498 427.919C575.75 463.745 575.75 463.745 569.892 471.99C566.695 475.641 562.925 478.513 559.056 481.409C552.66 486.287 548.719 490.12 547.604 498.266C546.744 508.272 547.324 518.255 548.133 528.245C539.223 528.245 530.313 528.245 521.133 528.245C521.133 603.485 521.133 678.725 521.133 756.245C527.403 756.245 533.673 756.245 540.133 756.245C540.071 754.616 540.197 752.678 540.133 751V705V681.5L540.5 640L549 620.5C549 620.5 558.733 599.189 564.888 595.32C569.019 592.678 574.5 589 574.5 589C574.5 589 579.413 584.53 579.982 584C579.982 584 579.774 577.195 579.82 573.37C579.874 572.471 579.927 565.426 579.982 564.5L579.133 563.245C576.74 560.971 574.074 559.691 571.133 558.245C566.247 553.887 562.632 548.477 561.852 541.862C561.555 533.793 563.758 527.289 568.605 520.85C572.589 516.663 577.944 513.537 583.734 513.007C593.298 512.772 599.97 514.778 607.133 521.245C612.263 528.935 614.454 535.498 612.688 544.518C610.662 552.031 605.992 557.776 599.32 561.745C596.133 563.245 596.133 563.245 594.133 563.245C594.133 563.245 593.345 563.976 593.5 565L592.554 590.729C592.554 590.729 577.674 600.164 572.5 604L562 623.5L554.133 644.5V662V686.5C554.133 686.5 553.999 702.978 554.133 710.5C554.412 725.908 554.133 756.245 554.133 756.245C554.939 756.236 555.745 756.228 556.575 756.219C560.26 756.185 563.944 756.164 567.629 756.143C568.897 756.13 570.165 756.116 571.471 756.102C580.405 756.064 587.874 756.591 596.133 760.245C597.542 760.846 597.542 760.846 598.98 761.46C613.805 768.653 624.678 781.811 630.133 797.245C631.387 801.682 632.133 805.619 632.133 810.245C633.187 810.238 634.24 810.232 635.326 810.225C645.258 810.164 655.19 810.119 665.122 810.089C670.228 810.074 675.334 810.053 680.44 810.019C685.367 809.986 690.295 809.968 695.223 809.96C697.103 809.955 698.983 809.944 700.863 809.928C703.496 809.906 706.129 809.903 708.762 809.904C709.928 809.888 709.928 809.888 711.117 809.872C715.64 809.897 718.558 810.411 722.133 813.245C724.475 816.757 724.629 818.11 724.133 822.245C722.333 824.945 721.049 826.787 718.133 828.245C715.902 828.346 713.668 828.38 711.435 828.385C710.735 828.388 710.036 828.391 709.315 828.394C706.946 828.402 704.577 828.404 702.209 828.406C700.503 828.41 698.797 828.415 697.091 828.421C692.385 828.435 687.679 828.443 682.973 828.449C678.941 828.455 674.91 828.465 670.878 828.476C657.593 828.509 644.308 828.53 631.023 828.549C627.566 828.553 624.108 828.559 620.651 828.564C599.198 828.595 577.744 828.621 556.291 828.638C551.32 828.642 546.348 828.646 541.377 828.65C540.141 828.651 538.905 828.652 537.632 828.653C517.602 828.67 497.573 828.711 477.543 828.762C456.996 828.814 436.449 828.843 415.902 828.85C404.358 828.855 392.815 828.87 381.271 828.91C371.443 828.944 361.615 828.958 351.787 828.945C346.77 828.94 341.753 828.944 336.735 828.974C332.145 829.001 327.556 829.001 322.966 828.978C321.302 828.975 319.639 828.982 317.975 829C315.718 829.023 313.465 829.009 311.208 828.986C309.953 828.988 308.699 828.989 307.406 828.991C302.765 827.933 301.707 826.196 299.133 822.245C298.945 818.682 298.945 818.682 300.133 815.245C303.535 811.686 305.049 810.415 309.967 809.644C311.425 809.629 312.884 809.642 314.341 809.677C315.542 809.676 315.542 809.676 316.768 809.675C319.398 809.679 322.026 809.717 324.656 809.757C326.486 809.766 328.316 809.773 330.146 809.778C334.95 809.797 339.753 809.846 344.557 809.902C349.464 809.953 354.37 809.976 359.277 810.001C368.896 810.054 378.514 810.14 388.133 810.245C388.283 809.155 388.433 808.064 388.587 806.941C390.137 796.44 393.861 787.764 400.133 779.245C400.645 778.537 401.156 777.83 401.684 777.1C410.435 766.09 424.34 758.478 438.133 756.245C440.628 756.164 443.125 756.137 445.621 756.147C446.324 756.149 447.028 756.15 447.752 756.152C449.983 756.157 452.214 756.17 454.445 756.182C455.964 756.187 457.483 756.192 459.002 756.196C462.712 756.207 466.423 756.224 470.133 756.245V714.245V693V646.107C465.371 640.986 453.973 627.125 448.575 622.694L437 608.5V583.507C437.46 578.81 436.327 574.23 436.594 569.518C436.66 568.423 436.726 567.328 436.794 566.2C436.911 559.51 435.955 555.599 431.381 550.629C428.454 547.921 425.373 545.56 422.133 543.245C420.7 542.013 419.278 540.769 417.883 539.495C415.792 537.622 413.762 535.994 411.43 534.417C407.247 531.169 404.553 528.83 403.694 523.545C403.263 516.764 403.583 510.011 404.133 503.245C402.959 503.032 402.959 503.032 401.762 502.815C396.668 501.71 392.677 498.256 389.543 494.175C384.865 486.825 383.814 479.508 385.629 470.889C388.36 462.914 393.83 458.08 401.133 454.245C408.429 451.813 415.925 452.784 422.844 455.925C429.66 459.856 434.075 465.654 436.133 473.245C437.391 481.355 435.604 487.445 431.133 494.245C427.664 498.444 423.927 500.803 419.133 503.245C418.473 503.245 417.813 503.245 417.133 503.245C417.133 508.855 417.133 514.465 417.133 520.245C418.453 520.905 419.773 521.565 421.133 522.245C432.793 529.946 448.608 540.954 451.823 555.331C452.855 564.709 452.108 574.12 451.537 583.507L450 603.5L461 616.245C467.943 623.948 473.466 631.152 482.291 636.57C484.133 638.245 484.133 638.245 484.625 640.457C484.621 641.324 484.618 642.192 484.614 643.085C484.622 644.581 484.622 644.581 484.631 646.107C484.616 647.199 484.602 648.292 484.587 649.418C484.588 650.569 484.589 652.907 484.589 652.907L484.421 664.5L484.506 672.274L484.421 691.016L484.334 712.353C484.292 726.984 484.221 741.614 484.133 756.245C489.413 756.245 494.693 756.245 500.133 756.245C500.133 700.145 500.133 644.045 500.133 586.245C491.553 586.245 482.973 586.245 474.133 586.245C474.233 583.256 474.334 580.266 474.438 577.187C474.755 567.209 474.929 557.233 475.037 547.252C475.107 541.209 475.221 535.176 475.446 529.137C477.87 500.419 477.87 500.419 467.48 475.003C463.274 470.592 458.52 466.875 453.737 463.118C449.021 459.374 446.568 456.779 445.741 450.744C445.662 446.97 446.01 443.408 446.57 439.682C446.696 438.159 446.81 436.635 446.912 435.11C447.181 431.465 447.606 427.863 448.133 424.245C446.967 424.046 446.967 424.046 445.778 423.843C440.235 422.59 436.141 417.729 432.664 413.429C428.965 407.312 429.351 400.139 430.133 393.245C432.097 386.003 437.579 380.402 443.875 376.581C450.679 373.791 459.226 373.926 466.188 376.276C473.081 380.047 477.654 385.808 480.133 393.245C480.918 403.375 480.322 410.125 473.883 417.995C471.541 419.911 469.642 421.083 466.961 422.386C466.243 422.737 465.526 423.087 464.786 423.449C464.241 423.712 463.695 423.974 463.133 424.245C460.637 442.336 460.637 442.336 466.637 458.71C470.018 462.287 473.694 465.442 477.664 468.35C478.479 468.975 479.293 469.601 480.133 470.245C480.779 470.701 481.426 471.157 482.092 471.627C487.686 475.922 487.686 475.922 488.861 479.401C489.115 481.887 489.124 484.263 489.041 486.76C489.042 487.688 489.043 488.616 489.045 489.571C489.039 492.619 488.977 495.663 488.914 498.71C488.899 500.83 488.888 502.95 488.88 505.07C488.849 510.635 488.771 516.199 488.682 521.764C488.6 527.448 488.564 533.133 488.523 538.817C488.438 549.961 488.301 561.103 488.133 572.245C492.093 572.245 496.053 572.245 500.133 572.245C500.133 500.965 500.133 429.685 500.133 356.245C436.113 356.245 372.093 356.245 306.133 356.245C309.433 364.495 312.733 372.745 316.133 381.245C319.445 390.557 319.445 390.557 320.832 394.589C322.381 398.944 324.163 403.17 325.984 407.417C327.522 411.202 328.752 415.061 329.945 418.968C330.996 421.868 332.185 424.589 333.48 427.386C336.132 433.138 338.386 438.99 340.57 444.932C341.298 446.895 342.026 448.857 342.754 450.819C343.135 451.851 343.517 452.883 343.91 453.946C349.719 469.618 355.656 485.242 361.559 500.878C362.905 504.444 364.251 508.011 365.598 511.577C366.052 512.78 366.506 513.984 366.974 515.224C369.729 522.52 372.479 529.818 375.228 537.117C376.999 541.823 378.772 546.529 380.545 551.234C381.38 553.45 382.214 555.667 383.048 557.883C384.224 561.012 385.403 564.14 386.582 567.268C386.956 568.262 387.329 569.255 387.714 570.279C389.654 575.416 391.637 580.533 393.685 585.629C394.1 586.668 394.516 587.707 394.943 588.777C395.733 590.744 396.529 592.707 397.336 594.667C404.209 611.814 397.962 630.034 391.001 646.361C378.286 673.958 354.527 692.101 326.809 702.491C315.641 706.395 305.136 707.618 293.359 707.616C291.098 707.62 288.84 707.656 286.58 707.694C257.482 707.919 231.828 695.23 211.008 675.432C199.928 664.012 192.496 651.086 187.133 636.245C186.591 634.953 186.05 633.662 185.508 632.37C181.019 620.289 179.244 607.712 184 595.612C184.306 594.799 184.612 593.986 184.927 593.149C185.94 590.467 186.974 587.794 188.008 585.12C188.735 583.207 189.461 581.294 190.186 579.38C192.101 574.337 194.033 569.301 195.971 564.267C197.834 559.42 199.684 554.569 201.535 549.718C204.519 541.906 207.513 534.098 210.512 526.292C215.163 514.182 219.778 502.059 224.383 489.932C224.771 488.91 225.159 487.888 225.559 486.835C230.241 474.508 234.917 462.178 239.59 449.846C241.458 444.917 243.327 439.987 245.195 435.057C245.883 433.244 245.883 433.244 246.584 431.394C253.934 412.003 261.329 392.629 268.764 373.27C269.3 371.873 269.3 371.873 269.847 370.448C270.51 368.721 271.173 366.996 271.837 365.27C272.986 362.276 274.118 359.288 275.133 356.245C274.229 356.255 274.229 356.255 273.306 356.265C267.028 356.332 260.751 356.377 254.472 356.41C252.13 356.425 249.787 356.445 247.445 356.471C244.077 356.508 240.709 356.525 237.34 356.538C235.771 356.561 235.771 356.561 234.17 356.585C225.095 356.587 225.095 356.587 221.133 353.245C218.792 350.235 218.721 346.968 218.805 343.214C219.323 340.102 220.918 338.394 223.133 336.245C225.529 335.047 226.998 335.121 229.674 335.122C230.636 335.12 231.598 335.118 232.589 335.116C233.653 335.119 234.717 335.122 235.813 335.125C236.938 335.124 238.063 335.123 239.222 335.122C243.016 335.12 246.81 335.126 250.604 335.131C253.314 335.132 256.023 335.132 258.733 335.131C264.58 335.13 270.426 335.134 276.273 335.139C284.727 335.147 293.18 335.15 301.634 335.151C315.348 335.153 329.062 335.16 342.776 335.169C356.101 335.179 369.425 335.186 382.75 335.19C383.571 335.19 384.392 335.191 385.238 335.191C389.356 335.192 393.474 335.193 397.592 335.195C431.772 335.205 465.953 335.223 500.133 335.245C500.133 323.365 500.133 311.485 500.133 299.245C496.503 298.255 492.873 297.265 489.133 296.245C475.612 289.648 467.809 279.327 462.258 265.62C458.144 253.357 459.047 241.154 464.133 229.245C471.715 214.268 483.02 205.351 498.82 199.995C512.4 196.992 526.48 199.849 538.133 207.245Z" fill="#0B4F4A"/>
<path d="M291 379C294.278 381.656 295.477 385.109 296.938 388.938C297.199 389.606 297.461 390.275 297.73 390.964C299.662 395.961 301.363 401.018 303.008 406.117C304.028 409.081 305.201 411.933 306.438 414.812C308.839 420.431 310.758 426.148 312.594 431.969C313.633 435.082 314.851 438.087 316.129 441.109C319.715 449.606 322.996 458.22 326.311 466.825C327.43 469.731 328.552 472.635 329.674 475.539C333.555 485.593 337.397 495.66 341.162 505.757C342.874 510.34 344.594 514.92 346.312 519.5C347.086 521.562 347.859 523.625 348.633 525.688C349.022 526.726 349.412 527.765 349.813 528.836C353.367 538.312 353.367 538.312 354.535 541.426C355.299 543.464 356.063 545.501 356.827 547.538C358.457 551.883 360.086 556.229 361.709 560.577C364.027 566.781 366.367 572.974 368.773 579.145C369.205 580.252 369.637 581.36 370.082 582.502C370.964 584.761 371.85 587.019 372.738 589.275C373.374 590.912 373.374 590.912 374.023 592.582C374.404 593.554 374.785 594.525 375.177 595.527C376 598 376 598 376 601C320.23 601 264.46 601 207 601C208.796 595.014 210.503 589.561 212.848 583.855C214.207 580.487 215.483 577.091 216.75 573.688C219.531 566.231 222.357 558.793 225.196 551.358C225.517 550.518 225.838 549.678 226.168 548.812C226.449 548.076 226.73 547.34 227.02 546.582C228.087 543.771 229.143 540.957 230.197 538.142C232.454 532.119 234.719 526.1 236.988 520.083C237.62 518.405 238.251 516.726 238.882 515.048C239.803 512.595 240.727 510.143 241.652 507.691C241.929 506.954 242.205 506.216 242.489 505.456C244.214 500.898 246.114 496.45 248.115 492.006C249.121 489.725 249.986 487.425 250.781 485.062C251.209 483.813 251.209 483.813 251.645 482.539C252.068 481.282 252.068 481.282 252.5 480C254.43 474.272 256.52 468.738 259.027 463.238C260.684 459.426 261.983 455.498 263.312 451.562C265.798 444.339 268.424 437.196 271.227 430.09C274.179 422.594 276.996 415.048 279.804 407.497C282.117 401.295 284.517 395.136 287 389C287.418 387.956 287.835 386.912 288.266 385.836C289.177 383.557 290.089 381.279 291 379Z" fill="white"/>
<path d="M729 379C729.66 379 730.32 379 731 379C735.575 390.263 740.013 401.558 744.164 412.984C749.069 426.441 754.212 439.807 759.345 453.177C765.657 469.623 771.939 486.079 778.161 502.559C782.927 515.183 787.732 527.791 792.564 540.39C793.063 541.693 793.563 542.997 794.062 544.301C794.306 544.936 794.55 545.572 794.801 546.227C796.561 550.83 798.29 555.445 800.012 560.062C803.308 568.89 806.791 577.641 810.295 586.389C810.994 588.151 810.994 588.151 811.707 589.949C812.124 590.994 812.542 592.039 812.972 593.116C814 596 814 596 815 601C759.23 601 703.46 601 646 601C646.702 596.791 647.297 593.802 648.768 589.963C649.135 588.996 649.502 588.03 649.88 587.035C650.283 585.991 650.686 584.947 651.102 583.871C651.526 582.758 651.95 581.646 652.387 580.499C653.551 577.449 654.72 574.401 655.89 571.353C657.131 568.118 658.366 564.881 659.6 561.644C660.109 560.311 660.618 558.977 661.126 557.644C661.381 556.977 661.635 556.309 661.898 555.621C662.683 553.564 663.468 551.508 664.254 549.451C667.855 540.023 671.428 530.584 674.98 521.137C675.344 520.17 675.344 520.17 675.715 519.183C676.689 516.594 677.662 514.005 678.635 511.416C686.577 490.287 694.589 469.188 702.755 448.145C708.398 433.599 713.96 419.023 719.5 404.438C719.922 403.327 720.344 402.216 720.779 401.072C721.968 397.943 723.156 394.813 724.344 391.684C724.7 390.745 725.057 389.807 725.424 388.84C725.75 387.979 726.076 387.119 726.412 386.232C726.696 385.483 726.98 384.734 727.273 383.963C727.881 382.32 728.446 380.662 729 379Z" fill="white"/>
<path d="M452.066 778.482C453.468 778.477 454.87 778.47 456.272 778.461C460.058 778.443 463.843 778.45 467.628 778.463C471.605 778.473 475.583 778.463 479.56 778.457C486.24 778.45 492.919 778.459 499.598 778.479C507.297 778.5 514.995 778.493 522.694 778.471C529.326 778.453 535.958 778.451 542.59 778.461C546.542 778.467 550.493 778.468 554.444 778.455C558.162 778.443 561.88 778.451 565.599 778.474C567.597 778.482 569.595 778.47 571.593 778.458C583.557 778.569 593.348 781.462 602 790C607.404 796.227 608.934 799.47 610 808C544.66 808.33 479.32 808.66 412 809C413.191 798.285 416.134 792.891 424.375 786.125C433.118 779.407 441.251 778.415 452.066 778.482Z" fill="white"/>
<path d="M522.945 222.977C525.123 224.18 527.044 225.466 529 227C530.361 227.897 530.361 227.897 531.75 228.812C537.165 234.077 540.089 239.932 540.292 247.496C540.361 254.801 540.162 260.719 536 267C535.588 267.633 535.175 268.266 534.75 268.918C530.287 274.864 523.919 277.694 517 280C507.711 281.148 500.722 279.267 493 274C487.521 269.104 483.022 263.306 482.566 255.758C482.549 254.214 482.548 252.669 482.562 251.125C482.543 250.361 482.523 249.596 482.502 248.809C482.509 240.351 486.133 234 492 228C500.911 221.535 512.29 219.444 522.945 222.977Z" fill="white"/>
<path d="M460 389C464.165 390.759 466.209 392.852 468 397C468.554 401.356 468.308 403.437 466.188 407.313C463.907 410.114 462.347 411.804 458.695 412.336C454.467 412.4 451.748 412.42 448 410.313C444.849 406.669 443.974 404.407 444.063 399.563C445.238 395.095 446.797 393.282 450 390C453.196 388.402 456.523 388.632 460 389Z" fill="white"/>
<path d="M415 468C418.752 470.015 420.636 471.455 423 475C423.431 480.347 423.468 483.665 420 488C416.188 491.407 413.373 491.502 408.414 491.363C405.032 490.854 403.277 489.497 401 487C399.138 483.275 399.429 479.055 400 475C403.392 468.659 408.085 467.049 415 468Z" fill="white"/>
<path d="M570 389C573.752 391.015 575.636 392.455 578 396C578.683 399.777 578.851 403.472 576.949 406.887C574.528 409.837 572.626 411.799 568.793 412.273C561.709 412.55 561.709 412.55 557.938 409.625C555.013 405.663 554.609 403.172 554.641 398.328C555.245 394.41 557.169 392.696 560 390C563.213 388.394 566.515 388.521 570 389Z" fill="white"/>
<path d="M593 528C596.075 529.702 598.406 531.812 600 535C600.398 539.773 600.475 542.085 598.25 546.375C594.859 550.332 593.321 550.851 588.125 551.437C584.875 551.365 583.101 550.718 580.563 548.687C577.075 545.03 576.604 542.085 576.641 537.07C577.282 533.377 579.359 531.578 582 529C585.484 527.258 589.199 527.413 593 528Z" fill="white"/>
<path d="M410 771C410.66 771.33 411.32 771.66 412 772C409.36 774.64 406.72 777.28 404 780C403.34 779.67 402.68 779.34 402 779C402.954 777.851 403.914 776.706 404.875 775.562C405.409 774.924 405.942 774.286 406.492 773.629C408 772 408 772 410 771Z" fill="#266068"/>
<path d="M496 225C496.66 225.33 497.32 225.66 498 226C495.03 228.97 492.06 231.94 489 235C488.34 234.67 487.68 234.34 487 234C489.79 230.513 492.252 227.498 496 225Z" fill="white"/>
</g>
<defs>
<clipPath id="clip0_1_418">
<rect width="1024" height="1024" fill="white"/>
</clipPath>
</defs>
</svg>
